<?xml version="1.0" encoding="utf-8"?>
<!-- Generator: Adobe Illustrator 24.3.0, SVG Export Plug-In . SVG Version: 6.00 Build 0)  -->
<svg version="1.1" id="Laag_1" xmlns="http://www.w3.org/2000/svg" xmlns:xlink="http://www.w3.org/1999/xlink" x="0px" y="0px"
	 viewBox="0 0 2776.45 1145.33" style="enable-background:new 0 0 2776.45 1145.33;" xml:space="preserve">
<style type="text/css">
	.st0{fill:#87DCFA;}
</style>
<g>
	<g>
		<g>
			<g>
				<g>
					<g>
						<path class="st0" d="M501.01,753.95l-62.15,106.78c-40.18-24.7-73.88-59.13-98.26-99.16l106.22-60.79
							C460.7,722.09,479.31,740.35,501.01,753.95z"/>
					</g>
				</g>
				<g>
					<g>
						<path class="st0" d="M586.33,780.51v123.81c-49.71-1.49-94.54-13.92-135.86-36.78l62.25-106.88
							C535.32,772.48,560.61,779.29,586.33,780.51z"/>
					</g>
				</g>
			</g>
			<g>
				<g>
					<g>
						<path class="st0" d="M847.01,456.36l-105.11,60.1c-13.68-22.33-32.35-41.5-54.38-55.75l61.59-105.44
							C788.46,379.87,823.82,416.11,847.01,456.36z"/>
					</g>
				</g>
				<g>
					<g>
						<path class="st0" d="M735.53,867.31c-41.36,23-87.46,35.76-135.7,36.91V780.51c25.67-1.21,50.93-8.03,73.58-19.85
							L735.53,867.31z"/>
					</g>
				</g>
				<g>
					<g>
						<path class="st0" d="M845.12,761.34c-24.4,40.05-57.82,74.46-97.95,99.13l-62.05-106.52c21.71-13.6,40.32-31.89,54.13-53.19
							L845.12,761.34z"/>
					</g>
				</g>
				<g>
					<g>
						<path class="st0" d="M887.73,616.11c-1.37,46.83-13.68,92.69-35.9,133.51L746.2,689.18c12.2-22.41,19.34-47.51,20.74-73.07
							H887.73z"/>
					</g>
				</g>
				<g>
					<g>
						<path class="st0" d="M887.83,602.62H767.19c-0.59-25.85-7.03-51.41-18.72-74.39l105.17-59.96
							C875.49,509.47,887.08,555.9,887.83,602.62z"/>
					</g>
				</g>
			</g>
		</g>
		<g>
			<g>
				<path class="st0" d="M566,311.54v53.92c0,35.39-28.79,64.21-64.21,64.21h-83.17V581.5c0,8.24,0.57,30.95,0.57,30.95
					c0.67,12.95,2.1,23.67,4.42,33.75c3.53,15.14,9.02,29.57,16.35,42.98c-9.48,5.41-106.06,60.67-106.06,60.67
					c-23-42.07-35.42-89.57-35.93-137.75c-0.03-0.86-0.03-1.72-0.03-2.59V429.67h-56.36c-22.09,0-40-17.91-40-40v-78.13h96.36
					v-66.82l120.68-69.04v135.86L566,311.54L566,311.54z"/>
			</g>
		</g>
	</g>
	<g>
		<path class="st0" d="M1168.69,540.34h-48.62v115.8c0,14.74,6.19,22.1,18.56,22.1c10.61,0,20.62-1.91,30.06-5.75v46.41
			c-10.61,5.3-25.19,7.96-43.76,7.96c-19.16,0-34.19-4.93-45.08-14.81c-10.91-9.87-16.35-28.21-16.35-55.03V540.34h-23.87v-45.97
			h23.87v-39.78l56.58-30v69.78h48.62v45.97H1168.69z"/>
		<path class="st0" d="M1341.07,492.16c8.25,0,15.03,0.44,20.33,1.33v52.6c-4.72-0.59-11.64-0.88-20.77-0.88
			c-20.33,0-37.5,6.85-51.49,20.55c-14,13.7-22.03,32.04-24.09,55.03v103.43h-56.58V494.37h56.58v72.93
			c2.65-22.39,10.23-40.51,22.76-54.37C1300.33,499.09,1318.08,492.16,1341.07,492.16z"/>
		<path class="st0" d="M1489.14,491.72c16.8,0,31.23,3.69,43.32,11.05c12.08,7.37,18.85,14.88,20.33,22.54v-30.94h56.58v229.84
			h-56.58v-34.04c-1.48,7.96-8.33,16.13-20.55,24.53c-12.23,8.4-26.6,12.6-43.1,12.6c-12.38,0-24.75-2.43-37.13-7.29
			s-23.94-11.93-34.7-21.22c-10.76-9.28-19.45-21.73-26.08-37.35s-9.94-33-9.94-52.16c0-18.86,3.31-35.95,9.94-51.27
			c6.63-15.32,15.25-27.69,25.86-37.13c10.61-9.43,22.1-16.64,34.48-21.66C1463.95,494.22,1476.47,491.72,1489.14,491.72z
			 M1497.98,540.34c-15.91,0-29.91,6.26-41.99,18.79c-12.09,12.53-18.12,29.25-18.12,50.17c0,21.21,6.04,38.09,18.12,50.61
			c12.08,12.53,26.08,18.78,41.99,18.78s29.46-5.81,40.66-17.46c11.19-11.64,16.8-28.95,16.8-51.93c0-23.57-5.52-40.96-16.58-52.16
			C1527.82,545.94,1514.18,540.34,1497.98,540.34z"/>
		<path class="st0" d="M1767.16,491.72c17.97,0,35.73,4.42,53.26,13.26s31.75,22.1,42.65,39.78l-49.95,18.12
			c-10.32-15.03-25.64-22.54-45.97-22.54c-15.62,0-29.39,6.26-41.33,18.79c-11.93,12.53-17.9,29.39-17.9,50.61
			c0,20.93,5.97,37.65,17.9,50.17c11.93,12.53,25.71,18.78,41.33,18.78c20.33,0,35.51-7.51,45.53-22.54l50.83,18.12
			c-10.9,17.68-25.19,30.94-42.87,39.78s-35.51,13.26-53.48,13.26c-12.38,0-25.12-2.43-38.23-7.29s-25.57-11.86-37.35-21
			c-11.79-9.13-21.44-21.51-28.95-37.13s-11.27-33-11.27-52.16c0-19.15,3.76-36.53,11.27-52.16c7.51-15.62,17.16-28.07,28.95-37.35
			c11.78-9.28,24.23-16.35,37.35-21.21C1742.03,494.15,1754.78,491.72,1767.16,491.72z"/>
		<path class="st0" d="M2007.6,598.68l121.55,125.53h-68.95l-84.86-91.94l-19.45,20.33v71.6h-56.58V414.8h56.58v168.4l82.21-88.84
			h69.84L2007.6,598.68z"/>
		<path class="st0" d="M2251.58,491.72c12.67,0,25.56,2.51,38.67,7.51c13.11,5.01,25.34,12.15,36.69,21.44
			c11.34,9.28,20.62,21.73,27.85,37.35c7.22,15.62,10.83,32.86,10.83,51.71c0,7.37-0.44,14.3-1.33,20.77h-169.73
			c2.94,14.74,10.17,26.45,21.66,35.14c11.49,8.7,23.72,13.04,36.69,13.04c19.45,0,34.48-5.75,45.08-17.24l46.41,24.31
			c-23.87,27.7-54.52,41.55-91.94,41.55c-9.72,0-19.82-1.48-30.28-4.42s-20.85-7.58-31.16-13.92
			c-10.32-6.33-19.52-13.99-27.62-22.98c-8.11-8.98-14.66-20.11-19.67-33.37s-7.51-27.55-7.51-42.88c0-25.04,6.26-46.85,18.78-65.42
			c12.52-18.56,27.33-31.97,44.42-40.22C2216.51,495.85,2233.9,491.72,2251.58,491.72z M2251.58,540.78
			c-13.26,0-25.19,4.13-35.8,12.38s-17.54,19.89-20.77,34.92h113.59c-3.25-15.03-10.39-26.66-21.44-34.92
			C2276.11,544.91,2264.25,540.78,2251.58,540.78z"/>
		<path class="st0" d="M2520.76,540.34h-48.62v115.8c0,14.74,6.19,22.1,18.56,22.1c10.61,0,20.62-1.91,30.06-5.75v46.41
			c-10.61,5.3-25.19,7.96-43.76,7.96c-19.16,0-34.19-4.93-45.08-14.81c-10.91-9.87-16.35-28.21-16.35-55.03V540.34h-23.87v-45.97
			h23.87v-39.78l56.58-30v69.78h48.62v45.97H2520.76z"/>
	</g>
</g>
</svg>
