<?xml version="1.0" encoding="utf-8"?>
<!-- Generator: Adobe Illustrator 27.0.1, SVG Export Plug-In . SVG Version: 6.00 Build 0)  -->
<svg version="1.1" id="Laag_1" xmlns="http://www.w3.org/2000/svg" xmlns:xlink="http://www.w3.org/1999/xlink" x="0px" y="0px"
	 viewBox="0 0 2776.45 1145.33" style="enable-background:new 0 0 2776.45 1145.33;" xml:space="preserve">
<style type="text/css">
	.st0{fill:#FFFFFF;}
</style>
<g>
	<g>
		<g>
			<g>
				<g>
					<g>
						<path class="st0" d="M501.01,753.95l-62.15,106.78c-40.18-24.7-73.88-59.13-98.26-99.16l106.22-60.79
							C460.7,722.09,479.31,740.35,501.01,753.95z"/>
					</g>
				</g>
				<g>
					<g>
						<path class="st0" d="M586.33,780.51v123.81c-49.71-1.49-94.54-13.92-135.86-36.78l62.25-106.88
							C535.32,772.48,560.61,779.29,586.33,780.51z"/>
					</g>
				</g>
			</g>
			<g>
				<g>
					<g>
						<path class="st0" d="M847.01,456.36l-105.11,60.1c-13.68-22.33-32.35-41.5-54.38-55.75l61.59-105.44
							C788.46,379.87,823.82,416.11,847.01,456.36z"/>
					</g>
				</g>
				<g>
					<g>
						<path class="st0" d="M735.53,867.31c-41.36,23-87.46,35.76-135.7,36.91V780.51c25.67-1.21,50.93-8.03,73.58-19.85
							L735.53,867.31z"/>
					</g>
				</g>
				<g>
					<g>
						<path class="st0" d="M845.12,761.34c-24.4,40.05-57.82,74.46-97.95,99.13l-62.05-106.52c21.71-13.6,40.32-31.89,54.13-53.19
							L845.12,761.34z"/>
					</g>
				</g>
				<g>
					<g>
						<path class="st0" d="M887.73,616.11c-1.37,46.83-13.68,92.69-35.9,133.51l-105.63-60.44c12.2-22.41,19.34-47.51,20.74-73.07
							H887.73z"/>
					</g>
				</g>
				<g>
					<g>
						<path class="st0" d="M887.83,602.62H767.19c-0.59-25.85-7.03-51.41-18.72-74.39l105.17-59.96
							C875.49,509.47,887.08,555.9,887.83,602.62z"/>
					</g>
				</g>
			</g>
		</g>
		<g>
			<g>
				<path class="st0" d="M566,311.54v53.92c0,35.39-28.79,64.21-64.21,64.21h-83.17V581.5c0,8.24,0.57,30.95,0.57,30.95
					c0.67,12.95,2.1,23.67,4.42,33.75c3.53,15.14,9.02,29.57,16.35,42.98c-9.48,5.41-106.06,60.67-106.06,60.67
					c-23-42.07-35.42-89.57-35.93-137.75c-0.03-0.86-0.03-1.72-0.03-2.59V429.67h-56.36c-22.09,0-40-17.91-40-40v-78.13h96.36
					v-66.82l120.68-69.04v135.86H566z"/>
			</g>
		</g>
	</g>
	<g>
		<path class="st0" d="M1168.69,489.5h-48.62v115.8c0,14.74,6.19,22.1,18.56,22.1c10.61,0,20.62-1.91,30.06-5.75v46.41
			c-10.61,5.3-25.19,7.96-43.76,7.96c-19.16,0-34.19-4.93-45.08-14.81c-10.91-9.87-16.35-28.21-16.35-55.03V489.5h-23.87v-45.97
			h23.87v-39.78l56.58-30v69.78h48.62V489.5z"/>
		<path class="st0" d="M1341.07,441.33c8.25,0,15.03,0.44,20.33,1.33v52.6c-4.72-0.59-11.64-0.88-20.77-0.88
			c-20.33,0-37.5,6.85-51.49,20.55c-14,13.7-22.03,32.04-24.09,55.03v103.43h-56.58V443.54h56.58v72.93
			c2.65-22.39,10.23-40.51,22.76-54.37C1300.33,448.25,1318.08,441.33,1341.07,441.33z"/>
		<path class="st0" d="M1489.14,440.88c16.8,0,31.23,3.69,43.32,11.05c12.08,7.37,18.85,14.88,20.33,22.54v-30.94h56.58v229.84
			h-56.58v-34.04c-1.48,7.96-8.33,16.13-20.55,24.53c-12.23,8.4-26.6,12.6-43.1,12.6c-12.38,0-24.75-2.43-37.13-7.29
			s-23.94-11.93-34.7-21.22c-10.76-9.28-19.45-21.73-26.08-37.35c-6.63-15.62-9.94-33-9.94-52.16c0-18.86,3.31-35.95,9.94-51.27
			c6.63-15.32,15.25-27.69,25.86-37.13c10.61-9.43,22.1-16.64,34.48-21.66C1463.95,443.39,1476.47,440.88,1489.14,440.88z
			 M1497.98,489.5c-15.91,0-29.91,6.26-41.99,18.79c-12.09,12.53-18.12,29.25-18.12,50.17c0,21.21,6.04,38.09,18.12,50.61
			c12.08,12.53,26.08,18.78,41.99,18.78c15.91,0,29.46-5.81,40.66-17.46c11.19-11.64,16.8-28.95,16.8-51.93
			c0-23.57-5.52-40.96-16.58-52.16C1527.82,495.1,1514.18,489.5,1497.98,489.5z"/>
		<path class="st0" d="M1767.16,440.88c17.97,0,35.73,4.42,53.26,13.26c17.53,8.84,31.75,22.1,42.65,39.78l-49.95,18.12
			c-10.32-15.03-25.64-22.54-45.97-22.54c-15.62,0-29.39,6.26-41.33,18.79c-11.93,12.53-17.9,29.39-17.9,50.61
			c0,20.93,5.97,37.65,17.9,50.17c11.93,12.53,25.71,18.78,41.33,18.78c20.33,0,35.51-7.51,45.53-22.54l50.83,18.12
			c-10.9,17.68-25.19,30.94-42.87,39.78c-17.68,8.84-35.51,13.26-53.48,13.26c-12.38,0-25.12-2.43-38.23-7.29
			c-13.11-4.86-25.57-11.86-37.35-21c-11.79-9.13-21.44-21.51-28.95-37.13c-7.51-15.62-11.27-33-11.27-52.16
			c0-19.15,3.76-36.53,11.27-52.16c7.51-15.62,17.16-28.07,28.95-37.35c11.78-9.28,24.23-16.35,37.35-21.21
			C1742.03,443.32,1754.78,440.88,1767.16,440.88z"/>
		<path class="st0" d="M2007.6,547.85l121.55,125.53h-68.95l-84.86-91.94l-19.45,20.33v71.6h-56.58v-309.4h56.58v168.4l82.21-88.84
			h69.84L2007.6,547.85z"/>
		<path class="st0" d="M2251.58,440.88c12.67,0,25.56,2.51,38.67,7.51c13.11,5.01,25.34,12.15,36.69,21.44
			c11.34,9.28,20.62,21.73,27.85,37.35c7.22,15.62,10.83,32.86,10.83,51.71c0,7.37-0.44,14.3-1.33,20.77h-169.73
			c2.94,14.74,10.17,26.45,21.66,35.14c11.49,8.7,23.72,13.04,36.69,13.04c19.45,0,34.48-5.75,45.08-17.24l46.41,24.31
			c-23.87,27.7-54.52,41.55-91.94,41.55c-9.72,0-19.82-1.48-30.28-4.42c-10.46-2.94-20.85-7.58-31.16-13.92
			c-10.32-6.33-19.52-13.99-27.62-22.98c-8.11-8.98-14.66-20.11-19.67-33.37c-5.01-13.26-7.51-27.55-7.51-42.88
			c0-25.04,6.26-46.85,18.78-65.42c12.52-18.56,27.33-31.97,44.42-40.22C2216.51,445.01,2233.9,440.88,2251.58,440.88z
			 M2251.58,489.95c-13.26,0-25.19,4.13-35.8,12.38c-10.61,8.25-17.54,19.89-20.77,34.92h113.59
			c-3.25-15.03-10.39-26.66-21.44-34.92C2276.11,494.08,2264.25,489.95,2251.58,489.95z"/>
		<path class="st0" d="M2520.76,489.5h-48.62v115.8c0,14.74,6.19,22.1,18.56,22.1c10.61,0,20.62-1.91,30.06-5.75v46.41
			c-10.61,5.3-25.19,7.96-43.76,7.96c-19.16,0-34.19-4.93-45.08-14.81c-10.91-9.87-16.35-28.21-16.35-55.03V489.5h-23.87v-45.97
			h23.87v-39.78l56.58-30v69.78h48.62V489.5z"/>
	</g>
	<g>
		<path class="st0" d="M1174.55,765.19c9.97,0,18.31,3.28,25.03,9.83c6.72,6.55,10.08,16.77,10.08,30.66v47.71h-21.67v-47.54
			c0-7.06-1.74-12.57-5.21-16.55c-3.47-3.97-7.9-5.96-13.27-5.96c-5.82,0-10.61,1.91-14.36,5.71c-3.75,3.81-6.41,8.68-7.98,14.62
			v49.73h-21.67v-47.54c0-7.06-1.74-12.57-5.21-16.55c-3.47-3.97-8.01-5.96-13.61-5.96c-11.65,0-18.98,6.78-22.01,20.33v49.73H1063
			v-87.36h21.67v17.81c0.56-4.03,3.13-8.15,7.73-12.35c4.59-4.2,10.75-6.3,18.48-6.3c7.06,0,13.47,1.62,19.24,4.87
			c5.77,3.25,10.16,8.23,13.19,14.95c1.79-4.93,5.35-9.46,10.67-13.61C1159.29,767.27,1166.15,765.19,1174.55,765.19z"/>
		<path class="st0" d="M1266.28,765.03c6.38,0,11.87,1.4,16.46,4.2c4.59,2.8,7.17,5.66,7.73,8.57v-11.76h21.5v87.36h-21.5v-12.94
			c-0.56,3.02-3.17,6.13-7.81,9.32c-4.65,3.19-10.11,4.79-16.38,4.79c-4.7,0-9.41-0.92-14.11-2.77c-4.7-1.85-9.1-4.54-13.19-8.06
			c-4.09-3.53-7.39-8.26-9.91-14.2c-2.52-5.93-3.78-12.54-3.78-19.82c0-7.17,1.26-13.66,3.78-19.49c2.52-5.82,5.8-10.53,9.83-14.11
			c4.03-3.58,8.4-6.33,13.1-8.23C1256.7,765.98,1261.46,765.03,1266.28,765.03z M1269.64,783.51c-6.05,0-11.37,2.38-15.96,7.14
			c-4.59,4.76-6.89,11.12-6.89,19.07c0,8.06,2.29,14.48,6.89,19.24c4.59,4.76,9.91,7.14,15.96,7.14c6.05,0,11.2-2.21,15.46-6.64
			c4.26-4.42,6.38-11,6.38-19.74c0-8.96-2.1-15.57-6.3-19.82C1280.98,785.64,1275.8,783.51,1269.64,783.51z"/>
		<path class="st0" d="M1370.94,805.68l46.2,47.71h-26.21l-32.26-34.94l-7.39,7.73v27.22h-21.5v-117.6h21.5v64.01l31.25-33.77h26.54
			L1370.94,805.68z"/>
		<path class="st0" d="M1463.68,765.03c4.81,0,9.72,0.95,14.7,2.86c4.98,1.91,9.63,4.62,13.94,8.15c4.31,3.53,7.84,8.26,10.58,14.2
			c2.74,5.94,4.12,12.49,4.12,19.66c0,2.8-0.17,5.43-0.5,7.9h-64.51c1.12,5.6,3.86,10.05,8.23,13.36c4.37,3.3,9.01,4.96,13.94,4.96
			c7.39,0,13.1-2.18,17.14-6.55l17.64,9.24c-9.07,10.53-20.72,15.79-34.94,15.79c-3.7,0-7.53-0.56-11.51-1.68
			c-3.98-1.12-7.92-2.88-11.84-5.29c-3.92-2.41-7.42-5.32-10.5-8.74c-3.08-3.42-5.57-7.64-7.48-12.68
			c-1.91-5.04-2.86-10.47-2.86-16.3c0-9.52,2.38-17.81,7.14-24.86c4.76-7.06,10.39-12.15,16.88-15.29
			C1450.35,766.6,1456.96,765.03,1463.68,765.03z M1463.68,783.67c-5.04,0-9.58,1.57-13.61,4.7c-4.03,3.14-6.67,7.56-7.9,13.27
			h43.18c-1.23-5.71-3.95-10.13-8.15-13.27C1473,785.24,1468.49,783.67,1463.68,783.67z"/>
		<path class="st0" d="M1565.15,791.23c-3.36-5.38-7.73-8.06-13.1-8.06c-2.46,0-4.54,0.62-6.22,1.85c-1.68,1.23-2.52,2.86-2.52,4.87
			c0,3.59,2.58,6.33,7.73,8.23l10.92,3.86c4.26,1.57,7.45,2.83,9.58,3.78c2.13,0.95,4.62,2.44,7.48,4.45
			c2.86,2.02,4.93,4.48,6.22,7.39c1.29,2.91,1.93,6.38,1.93,10.42c0,8.29-3.59,14.78-10.75,19.49c-7.17,4.7-15.18,7.06-24.02,7.06
			c-8.4,0-15.99-2.04-22.76-6.13c-6.78-4.09-11.12-9.77-13.02-17.05l17.98-5.54c1.57,3.36,4,5.94,7.31,7.73
			c3.3,1.79,6.8,2.69,10.5,2.69c3.25,0,6.1-0.78,8.57-2.35c2.46-1.57,3.7-3.64,3.7-6.22c0-3.7-2.69-6.44-8.06-8.23l-10.75-4.03
			c-8.63-3.25-14.93-6.72-18.9-10.42c-3.98-3.7-5.96-8.68-5.96-14.95c0-7.5,3-13.55,8.99-18.14c5.99-4.59,13.19-6.89,21.59-6.89
			c15.68,0,26.65,7.11,32.93,21.34L1565.15,791.23z"/>
		<path class="st0" d="M1725.76,783.51h-18.48v44.02c0,5.6,2.35,8.4,7.06,8.4c4.03,0,7.84-0.73,11.42-2.18v17.64
			c-4.03,2.02-9.58,3.02-16.63,3.02c-7.28,0-12.99-1.87-17.14-5.63c-4.15-3.75-6.22-10.72-6.22-20.92v-44.35h-9.07v-17.47h9.07
			v-15.12h21.5v15.12h18.48V783.51z"/>
		<path class="st0" d="M1764.23,735.79v19.32h-21.84v-19.32H1764.23z M1764.23,766.03v87.36h-21.84v-87.36H1764.23z"/>
		<path class="st0" d="M1896.11,765.19c9.97,0,18.31,3.28,25.03,9.83c6.72,6.55,10.08,16.77,10.08,30.66v47.71h-21.67v-47.54
			c0-7.06-1.74-12.57-5.21-16.55c-3.47-3.97-7.9-5.96-13.27-5.96c-5.82,0-10.61,1.91-14.36,5.71c-3.75,3.81-6.41,8.68-7.98,14.62
			v49.73h-21.67v-47.54c0-7.06-1.74-12.57-5.21-16.55c-3.47-3.97-8.01-5.96-13.61-5.96c-11.65,0-18.98,6.78-22.01,20.33v49.73
			h-21.67v-87.36h21.67v17.81c0.56-4.03,3.13-8.15,7.73-12.35c4.59-4.2,10.75-6.3,18.48-6.3c7.06,0,13.47,1.62,19.24,4.87
			c5.77,3.25,10.16,8.23,13.19,14.95c1.79-4.93,5.35-9.46,10.67-13.61C1880.85,767.27,1887.71,765.19,1896.11,765.19z"/>
		<path class="st0" d="M1990.69,765.03c4.81,0,9.72,0.95,14.7,2.86c4.98,1.91,9.63,4.62,13.94,8.15c4.31,3.53,7.84,8.26,10.58,14.2
			c2.74,5.94,4.12,12.49,4.12,19.66c0,2.8-0.17,5.43-0.5,7.9h-64.51c1.12,5.6,3.86,10.05,8.23,13.36c4.37,3.3,9.01,4.96,13.94,4.96
			c7.39,0,13.1-2.18,17.14-6.55l17.64,9.24c-9.07,10.53-20.72,15.79-34.94,15.79c-3.7,0-7.53-0.56-11.51-1.68
			c-3.98-1.12-7.92-2.88-11.84-5.29c-3.92-2.41-7.42-5.32-10.5-8.74c-3.08-3.42-5.57-7.64-7.48-12.68
			c-1.91-5.04-2.86-10.47-2.86-16.3c0-9.52,2.38-17.81,7.14-24.86c4.76-7.06,10.39-12.15,16.88-15.29
			C1977.36,766.6,1983.97,765.03,1990.69,765.03z M1990.69,783.67c-5.04,0-9.58,1.57-13.61,4.7c-4.03,3.14-6.67,7.56-7.9,13.27
			h43.18c-1.23-5.71-3.95-10.13-8.15-13.27C2000.02,785.24,1995.51,783.67,1990.69,783.67z"/>
		<path class="st0" d="M2252.94,766.03l-35.78,87.36h-3.53l-25.87-51.41l-25.7,51.41h-3.53l-35.78-87.36h21.34l18.31,46.87
			l23.52-46.87h3.86l23.52,46.87l18.31-46.87H2252.94z"/>
		<path class="st0" d="M2288.38,767.88c5.04-1.9,9.91-2.86,14.62-2.86c4.7,0,9.58,0.95,14.62,2.86c5.04,1.91,9.8,4.62,14.28,8.15
			c4.48,3.53,8.15,8.26,11,14.2c2.86,5.94,4.28,12.49,4.28,19.66c0,5.82-0.95,11.26-2.86,16.3c-1.91,5.04-4.4,9.27-7.48,12.68
			c-3.08,3.42-6.58,6.33-10.5,8.74c-3.92,2.41-7.87,4.17-11.84,5.29c-3.98,1.12-7.81,1.68-11.51,1.68c-3.7,0-7.53-0.56-11.51-1.68
			c-3.98-1.12-7.92-2.88-11.84-5.29c-3.92-2.41-7.42-5.32-10.5-8.74c-3.08-3.42-5.57-7.64-7.48-12.68
			c-1.91-5.04-2.86-10.47-2.86-16.3c0-7.17,1.43-13.72,4.28-19.66c2.86-5.94,6.52-10.67,11-14.2
			C2278.58,772.5,2283.34,769.79,2288.38,767.88z M2318.79,790.56c-4.59-4.7-9.86-7.06-15.79-7.06c-5.94,0-11.2,2.35-15.79,7.06
			c-4.59,4.7-6.89,11.15-6.89,19.32c0,8.06,2.29,14.45,6.89,19.15c4.59,4.7,9.85,7.06,15.79,7.06c5.94,0,11.2-2.35,15.79-7.06
			c4.59-4.7,6.89-11.09,6.89-19.15C2325.68,801.71,2323.38,795.27,2318.79,790.56z"/>
		<path class="st0" d="M2413.54,765.19c3.13,0,5.71,0.17,7.73,0.5v19.99c-1.79-0.22-4.43-0.34-7.9-0.34
			c-7.73,0-14.25,2.6-19.57,7.81c-5.32,5.21-8.37,12.18-9.16,20.92v39.31h-21.5v-87.36h21.5v27.72c1.01-8.51,3.89-15.4,8.65-20.66
			C2398.06,767.83,2404.81,765.19,2413.54,765.19z"/>
		<path class="st0" d="M2475.2,805.68l46.2,47.71h-26.21l-32.26-34.94l-7.39,7.73v27.22h-21.5v-117.6h21.5v64.01l31.25-33.77h26.54
			L2475.2,805.68z"/>
	</g>
</g>
</svg>
