<?xml version="1.0" encoding="utf-8"?>
<!-- Generator: Adobe Illustrator 24.3.0, SVG Export Plug-In . SVG Version: 6.00 Build 0)  -->
<svg version="1.1" id="Laag_1" xmlns="http://www.w3.org/2000/svg" xmlns:xlink="http://www.w3.org/1999/xlink" x="0px" y="0px"
	 viewBox="0 0 1080 1080" style="enable-background:new 0 0 1080 1080;" xml:space="preserve">
<style type="text/css">
	.st0{fill:#5A32FA;}
	.st1{fill:#87DCFA;}
</style>
<g>
	<g>
		<g>
			<g>
				<g>
					<path class="st1" d="M480.01,753.95l-62.15,106.78c-40.18-24.7-73.88-59.13-98.26-99.16l106.22-60.79
						C439.7,722.09,458.31,740.35,480.01,753.95z"/>
				</g>
			</g>
			<g>
				<g>
					<path class="st1" d="M565.33,780.51v123.81c-49.71-1.49-94.54-13.92-135.86-36.78l62.25-106.88
						C514.32,772.48,539.61,779.29,565.33,780.51z"/>
				</g>
			</g>
		</g>
		<g>
			<g>
				<g>
					<path class="st1" d="M826.01,456.36l-105.11,60.1c-13.68-22.33-32.35-41.5-54.38-55.75l61.59-105.44
						C767.46,379.87,802.82,416.11,826.01,456.36z"/>
				</g>
			</g>
			<g>
				<g>
					<path class="st1" d="M714.53,867.31c-41.36,23-87.46,35.76-135.7,36.91V780.51c25.67-1.21,50.93-8.03,73.58-19.85
						L714.53,867.31z"/>
				</g>
			</g>
			<g>
				<g>
					<path class="st1" d="M824.12,761.34c-24.4,40.05-57.82,74.46-97.95,99.13l-62.05-106.52c21.71-13.6,40.32-31.89,54.13-53.19
						L824.12,761.34z"/>
				</g>
			</g>
			<g>
				<g>
					<path class="st1" d="M866.73,616.11c-1.37,46.83-13.68,92.69-35.9,133.51l-105.63-60.44c12.2-22.41,19.34-47.51,20.74-73.07
						H866.73z"/>
				</g>
			</g>
			<g>
				<g>
					<path class="st1" d="M866.83,602.62H746.19c-0.59-25.85-7.03-51.41-18.72-74.39l105.17-59.96
						C854.49,509.47,866.08,555.9,866.83,602.62z"/>
				</g>
			</g>
		</g>
	</g>
	<g>
		<g>
			<path class="st1" d="M545,311.54v53.92c0,35.39-28.79,64.21-64.21,64.21h-83.17V581.5c0,8.24,0.57,30.95,0.57,30.95
				c0.67,12.95,2.1,23.67,4.42,33.75c3.53,15.14,9.02,29.57,16.35,42.98c-9.48,5.41-106.06,60.67-106.06,60.67
				c-23-42.07-35.42-89.57-35.93-137.75c-0.03-0.86-0.03-1.72-0.03-2.59V429.67h-56.36c-22.09,0-40-17.91-40-40v-78.13h96.36v-66.82
				l120.68-69.04v135.86H545z"/>
		</g>
	</g>
</g>
</svg>
